<?xml version="1.0" encoding="utf-8"?>
<svg width="97px" height="27px" viewBox="0 0 97 27" version="1.1" xmlns:xlink="http://www.w3.org/1999/xlink" xmlns="http://www.w3.org/2000/svg">
  <desc>Created with Lunacy</desc>
  <g id="brand">
    <path d="M0.30975 22.6619C6.601 26.0133 12.0407 24.7308 12.0132 20.2611C11.9737 13.9984 0 15.3556 0 6.81469C0 2.81578 3.76716 -1.88721 14.4131 0.781444L14.4131 4.345C8.47799 1.26142 3.78033 2.24811 3.79695 6.24638C3.81732 11.435 16.403 10.9572 15.9901 19.677C15.6765 26.3107 9.1834 28.3456 0.30975 26.1541L0.30975 22.6619" transform="translate(49 0)" id="Fill-1" fill="#FFFFFF" fill-rule="evenodd" stroke="none" />
    <path d="M15.2296 20.6817C15.2296 20.6817 9.45846 4.14442 8.6477 1.84457C8.03605 0.111944 6.17342 0 5.31599 0C4.76283 0 3.6562 0 3.6562 0L0 25.9981L2.69735 25.9981L5.47964 4.08563L12.7112 26L16.3089 26L23.6533 4.04529C24.1819 9.04867 25.7437 25.9981 25.7437 25.9981C25.7437 25.9981 26.3211 25.9981 28.1029 25.9981C29.9649 25.9981 30.0632 24.5031 29.9801 23.672C29.9216 23.0876 28.0251 4.73415 27.7995 2.7076C27.5743 0.681668 25.8221 0 24.7036 0C23.5877 0 22.2791 0 22.2791 0L15.2296 20.6817" transform="translate(67 0)" id="Fill-3" fill="#FFFFFF" fill-rule="evenodd" stroke="none" />
    <path d="M4.05267 11.6275L7.32251 11.6275C10.6381 11.6275 11.9476 9.49603 11.9476 6.86777C11.9476 4.23889 10.6381 2.09232 7.32251 2.09232L5.26423 2.09232C4.59534 2.09232 4.05267 2.64927 4.05267 3.33259L4.05267 11.6275ZM0 26L0 0L7.32251 0C14.1337 0 16 3.06792 16 6.85272C16 10.6378 14.1337 13.665 7.32251 13.665L3.98357 13.67C3.98357 13.67 3.97835 23.3667 3.98357 23.675C3.9977 24.5136 3.84598 26 2.00822 26C1.03252 26 0.349188 26 0 26L0 26Z" transform="translate(31 0)" id="Fill-4" fill="#FFFFFF" stroke="none" />
    <path d="M23.6897 13.4989C23.6897 5.25196 19.3517 1.85083 13.9998 1.85083C8.64803 1.85083 4.30964 7.06581 4.30964 13.4989C4.30964 21.4516 8.64803 25.1479 13.9998 25.1479C19.3517 25.1479 23.6897 19.9323 23.6897 13.4989ZM13.9998 27C6.28242 27 0 22.3544 0 13.4989C0 5.33469 6.28242 0 13.9998 0C21.7173 0 28 4.71952 28 13.4989C28 21.5409 21.7173 27 13.9998 27L13.9998 27Z" id="Fill-5" fill="#FFFFFF" stroke="none" />
  </g>
</svg>